<svg xmlns="http://www.w3.org/2000/svg" stroke-width="none" fill="white" class="icon icon-tabler icon-tabler-arrows-cross" width="100%" height="100%" viewBox="0 0 32 32" stroke-linecap="round" stroke-linejoin="round">
  <path d="M17.131 16l4.144-4.144c0.133-0.142 0.215-0.334 0.215-0.545 0-0.442-0.358-0.8-0.8-0.8-0.211 0-0.403 0.082-0.546 0.215l0-0-4.144 4.144-4.144-4.144c-0.142-0.133-0.334-0.215-0.545-0.215-0.442 0-0.8 0.358-0.8 0.8 0 0.211 0.082 0.403 0.215 0.546l-0-0 4.144 4.144-4.144 4.144c-0.146 0.144-0.236 0.344-0.236 0.565s0.090 0.421 0.236 0.565l0 0c0.141 0.145 0.337 0.235 0.555 0.235 0.004 0 0.007-0 0.011-0h-0.001c0.002 0 0.004 0 0.006 0 0.219 0 0.417-0.090 0.559-0.235l4.144-4.144 4.144 4.144c0.143 0.145 0.342 0.235 0.562 0.235 0.001 0 0.003 0 0.004 0h-0c0.003 0 0.007 0 0.010 0 0.218 0 0.414-0.090 0.555-0.235l0-0c0.146-0.144 0.236-0.344 0.236-0.565s-0.090-0.421-0.236-0.565l-0-0z"></path>
</svg>

